<?xml version="1.0" encoding="UTF-8"?>
<svg width="87px" height="64px" viewBox="0 0 87 64" version="1.1" xmlns="http://www.w3.org/2000/svg" xmlns:xlink="http://www.w3.org/1999/xlink">
    <title>arrow</title>
    <g id="Page-1" stroke="none" stroke-width="1" fill="none" fill-rule="evenodd">
        <g id="arrow" fill="#000000" fill-rule="nonzero">
            <path d="M22.88,63.05 C22.3019145,63.0483376 21.7748127,62.718899 21.52,62.2 C21.1620082,61.4543602 21.4751575,60.5596479 22.22,60.2 L81.66,31.62 L22.22,3.05 C21.7111915,2.83393971 21.3624516,2.3555462 21.3124409,1.8050309 C21.2624302,1.25451561 21.5192549,0.721110549 21.9808002,0.416900012 C22.4423456,0.112689474 23.0338006,0.0869823846 23.52,0.35 L85.78,30.27 C86.29645,30.5239903 86.6236105,31.0494727 86.6236105,31.625 C86.6236105,32.2005273 86.29645,32.7260097 85.78,32.98 L23.52,62.9 C23.3203811,62.9967044 23.1017998,63.0479343 22.88,63.05 Z" id="Path"></path>
            <path d="M1.88,63.05 C1.30191448,63.0483376 0.774812676,62.718899 0.52,62.2 C0.162008232,61.4543602 0.475157535,60.5596479 1.22,60.2 L60.66,31.62 L1.22,3.05 C0.711191483,2.83393971 0.362451592,2.3555462 0.312440907,1.8050309 C0.262430223,1.25451561 0.519254883,0.721110549 0.980800226,0.416900012 C1.44234557,0.112689474 2.03380057,0.0869823846 2.52,0.35 L64.78,30.27 C65.29645,30.5239903 65.6236105,31.0494727 65.6236105,31.625 C65.6236105,32.2005273 65.29645,32.7260097 64.78,32.98 L2.52,62.9 C2.32038111,62.9967044 2.10179984,63.0479343 1.88,63.05 Z" id="Path"></path>
        </g>
    </g>
</svg>