<svg xmlns="http://www.w3.org/2000/svg" width="145" height="42" viewBox="0 0 145 42">
    <g fill="none" fill-rule="evenodd">
        <path fill="#000" fill-rule="nonzero" d="M8.8 38.53c-1.126 1.124-2.67 1.729-4.26 1.67C2.38 40.2 0 38.81 0 36.08 0 33.35 2.35 32 4.54 32c1.59-.082 3.14.518 4.26 1.65v-2.06c0-1.54-1.32-2.47-3.19-2.47-1.473 0-2.883.594-3.91 1.65l-1-1.6c1.447-1.344 3.366-2.062 5.34-2 2.84 0 5.24 1.19 5.24 4.36v8.4H8.8v-1.4zm0-3.48c-.845-.955-2.076-1.477-3.35-1.42-1.75 0-3 1-3 2.47 0 1.47 1.24 2.48 3 2.48 1.274.057 2.505-.465 3.35-1.42v-2.11zM15.12 22.7L17.55 22.7 17.55 39.89 15.12 39.89zM21.89 37.13v-7.65h-2.16v-2h2.16V24h2.43v3.4H27v2h-2.68v7.14c0 .87.43 1.52 1.27 1.52.487.013.96-.163 1.32-.49l.62 1.75c-.706.587-1.614.875-2.53.8-.831.106-1.666-.17-2.27-.75-.605-.582-.913-1.405-.84-2.24zM42.46 27.13c1.892-.113 3.72.71 4.89 2.2l-1.62 1.41c-.73-1.01-1.915-1.588-3.16-1.54-1.168-.03-2.293.439-3.096 1.287-.803.849-1.208 1.999-1.114 3.163-.096 1.169.306 2.324 1.109 3.18.802.855 1.928 1.33 3.101 1.31 1.244.035 2.426-.545 3.16-1.55L47.35 38c-1.176 1.483-3 2.3-4.89 2.19-1.768.079-3.49-.583-4.75-1.826-1.26-1.243-1.945-2.955-1.89-4.724-.05-1.764.639-3.469 1.899-4.704 1.26-1.236 2.978-1.89 4.741-1.806zM50 27.44h2.43v1.91c1.021-1.33 2.584-2.133 4.26-2.19v2.35c-.272-.06-.551-.087-.83-.08-1.35.073-2.603.73-3.43 1.8v8.66H50V27.44zM64.87 27.13c3.91 0 6.34 2.92 6.34 6.73v.57H60.9c.181 2.277 2.15 3.992 4.43 3.86 1.426.012 2.803-.513 3.86-1.47l1.13 1.53c-1.448 1.26-3.322 1.922-5.24 1.85-2.389.124-4.655-1.067-5.908-3.104-1.254-2.038-1.295-4.597-.108-6.674 1.188-2.076 3.414-3.339 5.806-3.292zm-4 5.62h8c-.012-1.032-.447-2.013-1.203-2.714-.756-.702-1.768-1.062-2.797-.996-2.118-.052-3.892 1.594-4 3.71zM82.3 38.53c-1.135 1.137-2.696 1.743-4.3 1.67-2.16 0-4.54-1.39-4.54-4.12 0-2.73 2.39-4.08 4.54-4.08 1.589-.086 3.139.51 4.26 1.64v-2.05c0-1.54-1.32-2.47-3.18-2.47-1.473-.003-2.884.592-3.91 1.65l-1.06-1.6c1.45-1.345 3.373-2.064 5.35-2 2.83 0 5.23 1.19 5.23 4.36v8.4H82.3v-1.4zm0-3.48c-.83-.946-2.042-1.468-3.3-1.42-1.76 0-3 1-3 2.47 0 1.47 1.24 2.48 3 2.48 1.271.06 2.5-.463 3.34-1.42l-.04-2.11zM89.11 37.13v-7.65H87v-2h2.16V24h2.43v3.4h2.64v2h-2.69v7.14c0 .87.43 1.52 1.27 1.52.486.01.958-.165 1.32-.49l.62 1.75c-.71.588-1.621.875-2.54.8-.83.103-1.662-.175-2.263-.755-.602-.58-.91-1.402-.837-2.235zM96.5 23.89c0-.867.703-1.57 1.57-1.57.867 0 1.57.703 1.57 1.57 0 .867-.703 1.57-1.57 1.57-.867 0-1.57-.703-1.57-1.57zm.38 3.55h2.43v12.45h-2.43V27.44zM101.25 27.44L103.85 27.44 107.92 37.21 112 27.44 114.62 27.44 109.25 39.89 106.63 39.89zM122.31 27.13c3.91 0 6.34 2.92 6.34 6.73v.57h-10.31c.181 2.277 2.15 3.992 4.43 3.86 1.426.015 2.805-.51 3.86-1.47l1.13 1.53c-1.444 1.26-3.315 1.922-5.23 1.85-2.388.125-4.654-1.064-5.909-3.1-1.254-2.037-1.297-4.595-.112-6.672 1.185-2.078 3.41-3.342 5.801-3.298zm-4 5.62h8c-.017-1.03-.454-2.008-1.209-2.708-.755-.7-1.763-1.062-2.791-1.002-2.118-.052-3.892 1.594-4 3.71z" transform="translate(0 1)"/>
        <path stroke="#000" stroke-width="2.4" d="M16.31 18.2L16.31 0.2 143.31 0.2 143.31 38.2 132.31 38.2" transform="translate(0 1)"/>
    </g>
</svg>
